<?xml version="1.0" encoding="UTF-8"?>
<svg width="82px" height="48px" viewBox="0 0 82 48" version="1.1" xmlns="http://www.w3.org/2000/svg" xmlns:xlink="http://www.w3.org/1999/xlink">
    <!-- Generator: Sketch 51.1 (57501) - http://www.bohemiancoding.com/sketch -->
    <title>Group 19</title>
    <desc>Created with Sketch.</desc>
    <defs>
        <polygon id="path-1" points="0.105902639 0.06816 16.6666804 0.06816 16.6666804 6.71304 0.105902639 6.71304"></polygon>
        <polygon id="path-3" points="0.00151495601 0.036 41.4138976 0.036 41.4138976 32.511168 0.00151495601 32.511168"></polygon>
        <polygon id="path-5" points="0 0.191448 81.8338358 0.191448 81.8338358 6.836568 0 6.836568"></polygon>
        <polygon id="path-7" points="0 0.07476 81.8338358 0.07476 81.8338358 6.71988 0 6.71988"></polygon>
    </defs>
    <g id="Page-1" stroke="none" stroke-width="1" fill="none" fill-rule="evenodd">
        <g id="coming-soom" transform="translate(-147.000000, -242.000000)">
            <g id="Group" transform="translate(71.000000, 242.000000)">
                <g id="Group-19" transform="translate(76.000000, 0.000000)">
                    <g id="Group-3" transform="translate(65.167155, 21.804000)">
                        <mask id="mask-2" fill="white">
                            <use xlink:href="#path-1"></use>
                        </mask>
                        <g id="Clip-2"></g>
                        <path d="M14.8363249,3.05952 C12.860149,3.05952 10.9844891,2.20032 9.68980293,0.702 C9.34232493,0.29976 8.83613724,0.06816 8.30373842,0.06816 C7.77133959,0.06816 7.26515191,0.29952 6.91743343,0.702 C5.62346862,2.20008 3.74756833,3.05928 1.77115191,3.05928 C1.30127507,3.05928 0.83765044,3.00936 0.385568328,2.91504 C0.379797067,4.15944 0.28481173,5.38248 0.105902639,6.5784 C0.652729619,6.66672 1.20917537,6.71304 1.77115191,6.71304 C3.90026628,6.71304 5.95219003,6.06456 7.67491144,4.8864 C7.88940997,4.73952 8.09958006,4.58592 8.30373842,4.42296 C8.50741584,4.58592 8.71806686,4.73952 8.9325654,4.8864 C10.6552868,6.06456 12.7072106,6.71304 14.8363249,6.71304 C15.8472575,6.71304 16.6667765,5.89536 16.6667765,4.8864 C16.6667765,3.87744 15.8472575,3.05952 14.8363249,3.05952" id="Fill-1" fill="#A0A0A0" mask="url(#mask-2)"></path>
                    </g>
                    <path d="M14.578061,24.854688 C12.7194745,24.768048 10.9739085,23.923728 9.74919883,22.506288 C9.40148035,22.103808 8.89553314,21.872448 8.36313431,21.872448 C7.83049501,21.872448 7.3245478,22.103808 6.97682933,22.506288 C5.68238358,24.004608 3.80648328,24.863568 1.83030733,24.863568 C0.81937478,24.863568 9.61876833e-05,25.681248 9.61876833e-05,26.690208 C9.61876833e-05,27.699408 0.81937478,28.517088 1.83030733,28.517088 C3.9594217,28.517088 6.01134545,27.868608 7.73430733,26.690208 C7.94880587,26.543568 8.15897595,26.389968 8.36313431,26.227008 C8.56681173,26.389968 8.77722229,26.543568 8.99196129,26.690208 C10.7091519,27.865008 12.7538616,28.512768 14.8757619,28.516848 C14.6908411,27.321648 14.5903249,26.098608 14.578061,24.854688" id="Fill-4" fill="#A0A0A0"></path>
                    <path d="M56.9365437,22.585248 L56.9365437,20.889408 C56.9365437,19.324128 55.6659044,18.055008 54.0968428,18.055008 L26.2473824,18.055008 C24.6783208,18.055008 23.4074411,19.324128 23.4074411,20.889408 L23.4074411,22.585248 C23.4074411,26.673648 26.7285613,29.989248 30.8251947,29.989248 L31.9116346,29.989248 C35.0358106,29.989248 37.6461038,27.830448 38.3453883,24.928128 C38.5493062,24.081168 39.3079865,23.482128 40.1818516,23.482128 L40.1847372,23.482128 C41.0473003,23.482128 41.7946786,24.072768 41.9945085,24.911088 C42.6882622,27.822528 45.3057695,29.989248 48.4340334,29.989248 L49.5190305,29.989248 C53.6154235,29.989248 56.9365437,26.673648 56.9365437,22.585248" id="Fill-6" fill="#A0A0A0"></path>
                    <path d="M54.1387326,33.137568 C55.5957355,33.065088 56.9678528,32.399088 57.9266035,31.289088 C58.5494188,30.568608 59.4528616,30.155328 60.4056006,30.155328 C61.3116886,30.155328 62.1704041,30.532608 62.7881695,31.189008 C64.0556827,28.990848 64.7847853,26.445888 64.7847853,23.732688 L64.7847853,3.896928 C65.5756886,3.829488 66.2018704,3.186768 66.2018704,2.380608 C66.2018704,1.529568 65.5110023,0.839328 64.6580581,0.839328 L60.0254188,0.839328 C59.172715,0.839328 58.4818469,1.529568 58.4818469,2.380608 C58.4818469,3.231888 59.172715,3.922128 60.0254188,3.922128 L60.152146,3.922128 L60.152146,23.732688 C60.152146,27.891168 57.6863748,31.484208 54.1387326,33.137568" id="Fill-8" fill="#A0A0A0"></path>
                    <g id="Group-12" transform="translate(15.630499, 0.204000)">
                        <mask id="mask-4" fill="white">
                            <use xlink:href="#path-3"></use>
                        </mask>
                        <g id="Clip-11"></g>
                        <path d="M3.31854721,31.085088 C3.79058827,30.539088 4.4237437,30.170688 5.11749736,30.023808 C4.60842405,28.258368 4.3299607,26.396688 4.3299607,24.470208 C4.3299607,13.379328 13.3708815,4.355808 24.483685,4.355808 C29.4007994,4.355808 34.1361191,6.142608 37.8172217,9.386928 C38.7129695,10.176768 40.0809988,10.091808 40.8719021,9.197568 C41.6630457,8.303328 41.5781601,6.938448 40.6821718,6.148848 C36.2094446,2.206848 30.4566997,0.035808 24.483685,0.035808 C10.9842246,0.035808 0.00151495601,10.997088 0.00151495601,24.470208 C0.00151495601,27.286368 0.482934311,29.991648 1.36497537,32.511168 C2.10706334,32.194128 2.7774915,31.711248 3.31854721,31.085088" id="Fill-10" fill="#A0A0A0" mask="url(#mask-4)"></path>
                    </g>
                    <g id="Group-15" transform="translate(0.000000, 31.404000)">
                        <mask id="mask-6" fill="white">
                            <use xlink:href="#path-5"></use>
                        </mask>
                        <g id="Clip-14"></g>
                        <path d="M80.003312,3.183048 C78.0271361,3.183048 76.1514762,2.323848 74.85679,0.825528 C74.509312,0.423288 74.0031243,0.191688 73.4707255,0.191688 C72.9383267,0.191688 72.432139,0.423048 72.0844205,0.825528 C70.7904557,2.323608 68.9145554,3.182808 66.938139,3.182808 C64.9617226,3.182808 63.0863032,2.323608 61.7918575,0.825528 C61.444139,0.423048 60.9379513,0.191448 60.4055525,0.191448 C59.8731537,0.191448 59.3672065,0.423048 59.0192475,0.825528 C57.7457226,2.299608 55.9087783,3.154488 53.9669894,3.181368 C52.0365026,3.146328 50.2115818,2.292648 48.9440686,0.825528 C48.5965906,0.423288 48.0904029,0.191688 47.5580041,0.191688 C47.5219337,0.191688 47.4861038,0.192888 47.4505144,0.195048 C47.413963,0.192888 47.3774117,0.191448 47.3406199,0.191448 C46.8082211,0.191448 46.3022739,0.423048 45.9545554,0.825528 C44.6839161,2.296008 42.853224,3.150408 40.916966,3.181368 C38.9804674,3.150408 37.1497754,2.296248 35.8791361,0.825528 C35.5314176,0.423048 35.0252299,0.191448 34.4928311,0.191448 C34.4560393,0.191448 34.419488,0.192888 34.3829367,0.195048 C34.3473472,0.192888 34.3115173,0.191688 34.2756874,0.191688 C33.7430481,0.191688 33.2371009,0.423048 32.8893824,0.825768 C31.6221097,2.292648 29.7971889,3.146328 27.8664616,3.181368 C25.9246727,3.154728 24.0879689,2.299608 22.8142035,0.825528 C22.466485,0.423048 21.9602974,0.191448 21.4278985,0.191448 C20.8954997,0.191448 20.3895525,0.423048 20.041834,0.825528 C18.7473883,2.323608 16.8717284,3.182808 14.895312,3.182808 C12.9188956,3.182808 11.0432358,2.323608 9.7490305,0.825768 C9.40131202,0.423048 8.89536481,0.191688 8.36296598,0.191688 C7.83032669,0.191688 7.32437947,0.423048 6.976661,0.825768 C5.68245572,2.323848 3.80655543,3.183048 1.83037947,3.183048 C0.819446921,3.183048 -7.21407625e-05,4.000968 -7.21407625e-05,5.009928 C-7.21407625e-05,6.018888 0.819446921,6.836568 1.83037947,6.836568 C3.95949384,6.836568 6.0114176,6.188088 7.734139,5.009928 C7.94887801,4.863048 8.15904809,4.709448 8.36296598,4.546488 C8.56688387,4.709448 8.77729443,4.863048 8.99179296,5.009928 C10.7145144,6.188088 12.7664381,6.836568 14.8955525,6.836568 C17.0244264,6.836568 19.0765906,6.188088 20.799312,5.009928 C21.0138106,4.863048 21.2242211,4.709448 21.428139,4.546488 C21.6318164,4.709448 21.8424674,4.863048 22.056966,5.009928 C23.6798927,6.119928 25.5949894,6.759528 27.5913648,6.829848 C27.6413824,6.833928 27.6918809,6.836568 27.7431009,6.836568 C27.7794117,6.836568 27.8157226,6.836088 27.851793,6.835608 C27.8881038,6.836088 27.9244147,6.836568 27.960485,6.836568 C30.0895994,6.836568 32.1415232,6.188088 33.8642446,5.009928 C34.0412299,4.888728 34.2143677,4.761528 34.3843795,4.629768 C34.5543912,4.761528 34.727529,4.888728 34.9045144,5.009928 C36.6272358,6.188088 38.6791595,6.836568 40.8082739,6.836568 C40.8445848,6.836568 40.8806551,6.836088 40.916966,6.835608 C40.9532768,6.836088 40.9893472,6.836568 41.0256581,6.836568 C43.1547724,6.836568 45.2066962,6.188088 46.9291771,5.009928 C47.1064029,4.888728 47.2795408,4.761528 47.4495525,4.629768 C47.6195642,4.761528 47.7927021,4.888728 47.9696874,5.009928 C49.6924088,6.188088 51.7443326,6.836568 53.8732065,6.836568 C53.9095173,6.836568 53.9458282,6.836088 53.982139,6.835608 C54.0182094,6.836088 54.0545202,6.836568 54.0908311,6.836568 C54.1418106,6.836568 54.1923091,6.833928 54.2425672,6.829848 C56.2389425,6.759528 58.1540393,6.119928 59.776966,5.009928 C59.9914645,4.863048 60.2018751,4.709448 60.405793,4.546488 C60.6094704,4.709448 60.8201214,4.863048 61.0346199,5.009928 C62.7573413,6.188088 64.8092651,6.836568 66.9383795,6.836568 C69.0674938,6.836568 71.1194176,6.188088 72.842139,5.009928 C73.0566375,4.863048 73.2668076,4.709448 73.470966,4.546488 C73.6746434,4.709448 73.885054,4.863048 74.099793,5.009928 C75.8225144,6.188088 77.8744381,6.836568 80.0035525,6.836568 C81.014485,6.836568 81.8340041,6.018888 81.8340041,5.009928 C81.8340041,4.000968 81.0142446,3.183048 80.003312,3.183048" id="Fill-13" fill="#A0A0A0" mask="url(#mask-6)"></path>
                    </g>
                    <g id="Group-18" transform="translate(0.000000, 41.244000)">
                        <mask id="mask-8" fill="white">
                            <use xlink:href="#path-7"></use>
                        </mask>
                        <g id="Clip-17"></g>
                        <path d="M80.003312,3.06636 C78.0271361,3.06636 76.1514762,2.20716 74.85679,0.70884 C74.509312,0.3066 74.0031243,0.075 73.4707255,0.075 C72.9383267,0.075 72.432139,0.30636 72.0844205,0.70884 C70.7904557,2.20692 68.9145554,3.06612 66.938139,3.06612 C64.9617226,3.06612 63.0863032,2.20692 61.7918575,0.70884 C61.444139,0.30636 60.9379513,0.07476 60.4055525,0.07476 C59.8731537,0.07476 59.3672065,0.30636 59.0192475,0.70884 C57.7457226,2.18292 55.9087783,3.03804 53.9669894,3.06468 C52.0362622,3.02964 50.2115818,2.17596 48.9440686,0.70884 C48.5965906,0.3066 48.0904029,0.075 47.5580041,0.075 C47.5219337,0.075 47.4861038,0.0762 47.4505144,0.07836 C47.413963,0.0762 47.3774117,0.07476 47.3406199,0.07476 C46.8082211,0.07476 46.3022739,0.30636 45.9545554,0.70884 C44.6839161,2.17932 42.8529836,3.03372 40.9167255,3.06468 C38.9804674,3.03372 37.1497754,2.17932 35.8791361,0.70884 C35.5314176,0.30636 35.0252299,0.07476 34.4928311,0.07476 C34.4560393,0.07476 34.419488,0.0762 34.3829367,0.07836 C34.3473472,0.0762 34.3115173,0.075 34.2756874,0.075 C33.7430481,0.075 33.2371009,0.30636 32.8893824,0.70884 C31.6221097,2.17596 29.7974293,3.02964 27.8667021,3.06468 C25.9249132,3.03804 24.0879689,2.18292 22.8142035,0.70884 C22.466485,0.30636 21.9602974,0.07476 21.4278985,0.07476 C20.8954997,0.07476 20.3895525,0.30636 20.041834,0.70884 C18.7473883,2.20692 16.8717284,3.06612 14.895312,3.06612 C12.9188956,3.06612 11.0432358,2.20692 9.7490305,0.70884 C9.40131202,0.30636 8.89536481,0.075 8.36296598,0.075 C7.83032669,0.075 7.32437947,0.30636 6.976661,0.70884 C5.68245572,2.2074 3.80655543,3.06636 1.83037947,3.06636 C0.819446921,3.06636 -7.21407625e-05,3.88428 -7.21407625e-05,4.89324 C-7.21407625e-05,5.9022 0.819446921,6.71988 1.83037947,6.71988 C3.95949384,6.71988 6.0114176,6.0714 7.734139,4.89324 C7.94887801,4.74636 8.15928856,4.59276 8.36296598,4.4298 C8.56688387,4.59276 8.77729443,4.74636 8.99179296,4.89324 C10.7145144,6.0714 12.7664381,6.71988 14.8955525,6.71988 C17.0244264,6.71988 19.0765906,6.0714 20.799312,4.89324 C21.0138106,4.74636 21.2244616,4.59276 21.428139,4.4298 C21.6318164,4.59276 21.8424674,4.74636 22.056966,4.89324 C23.6798927,6.00324 25.5949894,6.64284 27.5913648,6.71316 C27.6413824,6.71724 27.6918809,6.71988 27.7431009,6.71988 C27.7794117,6.71988 27.8157226,6.7194 27.851793,6.71892 C27.8881038,6.7194 27.9244147,6.71988 27.960485,6.71988 C30.0895994,6.71988 32.1415232,6.0714 33.8642446,4.89324 C34.0412299,4.77204 34.2143677,4.64484 34.3843795,4.51308 C34.5543912,4.64484 34.727529,4.77204 34.9045144,4.89324 C36.6272358,6.0714 38.6791595,6.71988 40.8082739,6.71988 C40.8445848,6.71988 40.8806551,6.7194 40.916966,6.71892 C40.9532768,6.7194 40.9893472,6.71988 41.0256581,6.71988 C43.1547724,6.71988 45.2066962,6.0714 46.9291771,4.89324 C47.1064029,4.77204 47.2795408,4.64484 47.4495525,4.51308 C47.6195642,4.64484 47.7927021,4.77204 47.9696874,4.89324 C49.6924088,6.0714 51.7443326,6.71988 53.8732065,6.71988 C53.9095173,6.71988 53.9458282,6.7194 53.982139,6.71892 C54.0182094,6.7194 54.0545202,6.71988 54.0908311,6.71988 C54.1418106,6.71988 54.1923091,6.71724 54.2425672,6.71316 C56.2389425,6.64284 58.1540393,6.00324 59.776966,4.89324 C59.9914645,4.74636 60.2018751,4.59276 60.405793,4.4298 C60.6094704,4.59276 60.8201214,4.74636 61.0346199,4.89324 C62.7571009,6.0714 64.8092651,6.71988 66.9383795,6.71988 C69.0674938,6.71988 71.1194176,6.0714 72.842139,4.89324 C73.0566375,4.74636 73.2668076,4.59276 73.470966,4.4298 C73.6746434,4.59276 73.885054,4.74636 74.099793,4.89324 C75.8222739,6.0714 77.8744381,6.71988 80.0035525,6.71988 C81.014485,6.71988 81.8340041,5.9022 81.8340041,4.89324 C81.8340041,3.88428 81.0142446,3.06636 80.003312,3.06636" id="Fill-16" fill="#A0A0A0" mask="url(#mask-8)"></path>
                    </g>
                </g>
            </g>
        </g>
    </g>
</svg>